<?xml version="1.0" encoding="UTF-8" standalone="no"?>
<svg
   xmlns:dc="http://purl.org/dc/elements/1.1/"
   xmlns:cc="http://creativecommons.org/ns#"
   xmlns:rdf="http://www.w3.org/1999/02/22-rdf-syntax-ns#"
   xmlns:svg="http://www.w3.org/2000/svg"
   xmlns="http://www.w3.org/2000/svg"
   xmlns:sodipodi="http://sodipodi.sourceforge.net/DTD/sodipodi-0.dtd"
   xmlns:inkscape="http://www.inkscape.org/namespaces/inkscape"
   viewBox="0 0 800 389.5622"
   xml:space="preserve"
   version="1.1"
   id="svg2"
   sodipodi:docname="lock.svg"
   inkscape:version="1.0.1 (3bc2e813f5, 2020-09-07)"
   width="800"
   height="389.56219"><sodipodi:namedview
     pagecolor="#ffffff"
     bordercolor="#666666"
     borderopacity="1"
     objecttolerance="10"
     gridtolerance="10"
     guidetolerance="10"
     inkscape:pageopacity="0"
     inkscape:pageshadow="2"
     inkscape:window-width="1920"
     inkscape:window-height="1017"
     id="namedview14"
     showgrid="true"
     inkscape:snap-bbox="true"
     inkscape:object-paths="false"
     inkscape:snap-smooth-nodes="false"
     inkscape:snap-nodes="true"
     inkscape:bbox-nodes="true"
     inkscape:zoom="1.4142136"
     inkscape:cx="327.06736"
     inkscape:cy="159.70138"
     inkscape:window-x="-8"
     inkscape:window-y="-8"
     inkscape:window-maximized="1"
     inkscape:current-layer="g872"
     fit-margin-top="2"
     fit-margin-left="2"
     fit-margin-right="2"
     fit-margin-bottom="2"
     inkscape:document-rotation="0"
     lock-margins="false"><inkscape:grid
       type="xygrid"
       id="grid839"
       originx="118"
       originy="60.726441" /></sodipodi:namedview><metadata
     id="metadata8"><rdf:RDF><cc:Work
         rdf:about=""><dc:format>image/svg+xml</dc:format><dc:type
           rdf:resource="http://purl.org/dc/dcmitype/StillImage" /><dc:title></dc:title></cc:Work></rdf:RDF></metadata><defs
     id="defs6"><clipPath
       id="clipPath16"
       clipPathUnits="userSpaceOnUse"><path
         id="path18"
         d="M 0,36 H 36 V 0 H 0 Z" /></clipPath></defs><g
     id="g872"
     transform="matrix(5.1772358,0,0,5.1772358,-3.1772337,-3.1772358)"><path
       style="fill:#aab8c2;fill-opacity:1;stroke:none;stroke-width:1.14286px;stroke-linecap:butt;stroke-linejoin:miter;stroke-opacity:1"
       d="m 135,38.999375 v 16 h 8 L 140.71429,51.570804 143,49.285089 140.71429,46.999375 143,44.713661 140.71429,42.427946 v -3.428571 z"
       id="path841" /><g
       transform="matrix(1.25,0,0,-1.25,116,45.999375)"
       id="g10"><g
         id="g12"><g
           clip-path="url(#clipPath16)"
           id="g14"><g
             transform="translate(18,35.9995)"
             id="g20"><path
               id="path22"
               style="fill:#aab8c2;fill-opacity:1;fill-rule:nonzero;stroke:none"
               d="m 0,0 c -4.612,0 -8.483,-3.126 -9.639,-7.371 l 3.855,-1.052 C -5.09,-5.875 -2.767,-4 0,-4 c 3.314,0 6,-2.687 6,-6 v -10 h 4 v 10 C 10,-4.477 5.523,0 0,0" /></g><g
             transform="translate(31,4)"
             id="g24"><path
               id="path26"
               style="fill:#ffac33;fill-opacity:1;fill-rule:nonzero;stroke:none"
               d="m 0,0 c 0,-2.209 -1.791,-4 -4,-4 h -18 c -2.209,0 -4,1.791 -4,4 v 12 c 0,2.209 1.791,4 4,4 h 18 c 2.209,0 4,-1.791 4,-4 z" /></g></g></g></g><path
       id="path843"
       style="opacity:0.99;fill:#ffac33;fill-opacity:1;stroke:none;stroke-width:0.186835;stroke-linecap:round;stroke-linejoin:round;paint-order:markers stroke fill"
       d="m 138.5,52.999375 a 9.5,9.5 0 0 0 -9.5,9.5 9.5,9.5 0 0 0 9.5,9.5 9.5,9.5 0 0 0 9.5,-9.5 9.5,9.5 0 0 0 -9.5,-9.5 z m 0,11 a 2.5,2.5 0 0 1 2.5,2.5 2.5,2.5 0 0 1 -2.5,2.5 2.5,2.5 0 0 1 -2.5,-2.5 2.5,2.5 0 0 1 2.5,-2.5 z" /><g
       id="g853"
       transform="matrix(1.2608696,0,0,1.2608696,-36.510871,-29.999836)"><rect
         style="opacity:0.99;fill:#e6e6e6;fill-opacity:1;stroke:none;stroke-width:0.309847;stroke-linecap:round;stroke-linejoin:round;paint-order:markers stroke fill"
         id="rect858"
         width="92"
         height="18"
         x="29.75"
         y="45.999374" /><text
         xml:space="preserve"
         style="font-style:normal;font-variant:normal;font-weight:normal;font-stretch:normal;font-size:5.33333px;line-height:1.25;font-family:Arial;-inkscape-font-specification:Arial;letter-spacing:0px;word-spacing:0px;fill:#222222;fill-opacity:1;stroke:none"
         x="32.414062"
         y="52.330101"
         id="text852"><tspan
           sodipodi:role="line"
           id="tspan850"
           x="32.414062"
           y="52.330101"
           style="font-style:normal;font-variant:normal;font-weight:normal;font-stretch:normal;font-size:5.33333px;font-family:'Roboto Mono';-inkscape-font-specification:'Roboto Mono';fill:#222222;fill-opacity:1">BSKQBE-ELZQ7S-B36QXU-HDDVAG</tspan></text><text
         xml:space="preserve"
         style="font-style:normal;font-variant:normal;font-weight:normal;font-stretch:normal;font-size:5.92529px;line-height:1.25;font-family:Arial;-inkscape-font-specification:Arial;letter-spacing:0px;word-spacing:0px;fill:#222222;fill-opacity:1;stroke:none;stroke-width:1.48132"
         x="52.608208"
         y="60.526875"
         id="text856"><tspan
           sodipodi:role="line"
           id="tspan854"
           x="52.608208"
           y="60.526875"
           style="font-size:5.92529px;fill:#222222;fill-opacity:1;stroke-width:1.48132">Valid for one year</tspan></text></g><path
       style="fill:none;stroke:#b39e80;stroke-width:1px;stroke-linecap:round;stroke-linejoin:round;stroke-opacity:1"
       d="m 139,68.999375 -1,3 c 0,0 -2,4 -8.27894,2.724874 -8.02399,-1.629512 -9.93246,-8.154026 -10.0068,-16.3382 C 119.65625,51.999375 115,48.999375 115,48.999375"
       id="path866"
       sodipodi:nodetypes="ccssc" /><path
       style="fill:#4b5c68;fill-opacity:1;stroke:none;stroke-width:1px;stroke-linecap:butt;stroke-linejoin:miter;stroke-opacity:1"
       d="m 135,45.999375 h 6.70313 l -0.98884,1 0.95759,1 H 135 Z"
       id="path870" /></g></svg>
