<?xml version="1.0" encoding="UTF-8" standalone="no"?>
<svg
   xmlns:dc="http://purl.org/dc/elements/1.1/"
   xmlns:cc="http://creativecommons.org/ns#"
   xmlns:rdf="http://www.w3.org/1999/02/22-rdf-syntax-ns#"
   xmlns:svg="http://www.w3.org/2000/svg"
   xmlns="http://www.w3.org/2000/svg"
   xmlns:sodipodi="http://sodipodi.sourceforge.net/DTD/sodipodi-0.dtd"
   xmlns:inkscape="http://www.inkscape.org/namespaces/inkscape"
   width="80"
   height="80"
   viewBox="0 0 21.166666 21.166666"
   version="1.1"
   id="svg8"
   inkscape:version="1.0.1 (3bc2e813f5, 2020-09-07)"
   sodipodi:docname="background.svg">
  <defs
     id="defs2" />
  <sodipodi:namedview
     id="base"
     pagecolor="#ffffff"
     bordercolor="#666666"
     borderopacity="1.0"
     inkscape:pageopacity="0.0"
     inkscape:pageshadow="2"
     inkscape:zoom="8.0000001"
     inkscape:cx="25.33241"
     inkscape:cy="41.360269"
     inkscape:document-units="mm"
     inkscape:current-layer="layer1"
     showgrid="true"
     units="px"
     inkscape:window-width="1920"
     inkscape:window-height="1017"
     inkscape:window-x="-8"
     inkscape:window-y="-8"
     inkscape:window-maximized="1"
     inkscape:document-rotation="0"
     fit-margin-top="0"
     fit-margin-left="0"
     fit-margin-right="0"
     fit-margin-bottom="0">
    <inkscape:grid
       type="xygrid"
       id="grid815"
       spacingx="0.26458332"
       spacingy="0.26458332"
       empspacing="20"
       originx="0"
       originy="1.3505859e-05" />
  </sodipodi:namedview>
  <metadata
     id="metadata5">
    <rdf:RDF>
      <cc:Work
         rdf:about="">
        <dc:format>image/svg+xml</dc:format>
        <dc:type
           rdf:resource="http://purl.org/dc/dcmitype/StillImage" />
        <dc:title></dc:title>
      </cc:Work>
    </rdf:RDF>
  </metadata>
  <g
     inkscape:label="Layer 1"
     inkscape:groupmode="layer"
     id="layer1"
     transform="translate(0,-270.54166)">
    <path
       id="rect817"
       style="fill:#bd6d53;fill-opacity:1;stroke:none;stroke-width:2"
       d="M 40 0 L 40 18 L 73.40625 18 A 39.999995 39.999995 0 0 0 40 0 z M 38 0.05078125 A 39.999995 39.999995 0 0 0 6.5957031 18 L 38 18 L 38 0.05078125 z M 5.359375 20 A 39.999995 39.999995 0 0 0 0.05078125 38 L 18 38 L 18 20 L 5.359375 20 z M 20 20 L 20 38 L 58 38 L 58 20 L 20 20 z M 60 20 L 60 38 L 79.949219 38 A 39.999995 39.999995 0 0 0 74.640625 20 L 60 20 z M 0 40 A 39.999995 39.999995 0 0 0 0 40.076172 A 39.999995 39.999995 0 0 0 4.2792969 58 L 38 58 L 38 40 L 0 40 z M 40 40 L 40 58 L 75.720703 58 A 39.999995 39.999995 0 0 0 78 52.488281 L 78 40 L 40 40 z M 5.359375 60 A 39.999995 39.999995 0 0 0 18 73.404297 L 18 60 L 5.359375 60 z M 20 60 L 20 74.640625 A 39.999995 39.999995 0 0 0 27.511719 78 L 52.488281 78 A 39.999995 39.999995 0 0 0 58 75.720703 L 58 60 L 20 60 z M 60 60 L 60 74.640625 A 39.999995 39.999995 0 0 0 74.640625 60 L 60 60 z "
       transform="matrix(0.26458333,0,0,0.26458333,0,270.54166)" />
  </g>
</svg>
