<?xml version="1.0" standalone="no"?>
<!DOCTYPE svg PUBLIC "-//W3C//DTD SVG 20010904//EN"
 "http://www.w3.org/TR/2001/REC-SVG-20010904/DTD/svg10.dtd">
<svg version="1.0" xmlns="http://www.w3.org/2000/svg"
 width="700.000000pt" height="700.000000pt" viewBox="0 0 700.000000 700.000000"
 preserveAspectRatio="xMidYMid meet">
<metadata>
Created by potrace 1.11, written by Peter Selinger 2001-2013
</metadata>
<g transform="translate(0.000000,700.000000) scale(0.100000,-0.100000)"
fill="#000000" stroke="none">
<path d="M3277 6994 c-1 -1 -40 -5 -87 -8 -47 -4 -94 -9 -105 -11 -11 -2 -42
-7 -70 -10 -48 -5 -133 -19 -185 -30 -14 -3 -47 -10 -75 -15 -95 -19 -273 -70
-406 -116 -136 -47 -148 -52 -299 -120 -568 -256 -1067 -673 -1428 -1192 -36
-52 -40 -62 -25 -63 61 -4 2723 -3 2724 1 1 3 2 357 3 786 l1 782 -23 -2 c-13
0 -24 -2 -25 -2z"/>
<path d="M3502 6213 l3 -788 1457 0 c802 0 1458 2 1458 4 0 2 -32 49 -71 103
-167 234 -383 468 -594 643 -33 28 -62 53 -65 56 -12 14 -203 151 -280 201
-140 90 -198 123 -345 196 -328 164 -669 274 -1015 328 -88 14 -116 17 -226
29 -22 3 -104 7 -182 11 l-142 6 2 -789z"/>
<path d="M451 5216 c-35 -55 -146 -284 -185 -379 -79 -191 -163 -462 -190
-610 -11 -60 -26 -143 -30 -162 -2 -12 -7 -48 -11 -80 -4 -33 -9 -69 -11 -80
-6 -29 -17 -201 -15 -220 1 -7 262 -10 774 -9 424 1 777 2 782 3 7 1 10 265
10 784 l0 782 -552 3 -551 2 -21 -34z"/>
<path d="M1750 4465 c0 -432 3 -786 8 -786 4 -1 751 -2 1659 -3 1097 -1 1654
2 1656 9 2 5 3 359 3 785 l-1 775 -1662 3 -1663 2 0 -785z"/>
<path d="M5252 4463 l3 -788 860 -1 c473 0 865 1 871 3 10 4 10 41 -1 143 -4
30 -8 73 -11 95 -6 57 -14 117 -19 135 -2 8 -7 35 -10 60 -43 306 -230 833
-388 1093 l-29 47 -639 0 -639 0 2 -787z"/>
<path d="M4 3358 c4 -79 8 -156 10 -173 2 -16 7 -57 10 -90 4 -33 12 -89 17
-125 6 -36 12 -76 14 -90 17 -126 142 -565 189 -665 8 -16 23 -52 34 -80 11
-27 37 -86 59 -130 l39 -80 1469 0 c809 0 1472 3 1475 6 3 4 5 357 5 786 l0
778 -1663 3 -1664 2 6 -142z"/>
<path d="M3502 2713 l3 -788 1558 0 c1028 0 1561 3 1566 10 17 24 99 210 145
333 l51 133 0 547 0 547 -1663 3 -1662 2 2 -787z"/>
<path d="M491 1713 c168 -277 352 -508 589 -738 66 -64 97 -92 210 -189 28
-24 148 -113 227 -169 29 -20 54 -33 56 -29 3 6 1 1118 -2 1150 -1 9 -119 12
-552 12 l-551 0 23 -37z"/>
<path d="M1750 1111 l0 -639 33 -20 c50 -31 195 -104 267 -136 36 -16 83 -37
105 -47 22 -9 85 -34 140 -55 l100 -38 1100 -1 1100 -1 140 54 c77 29 185 74
240 101 l100 47 0 685 0 684 -1663 3 -1662 2 0 -639z"/>
<path d="M5250 1110 l0 -639 48 28 c159 94 415 281 523 381 295 274 503 527
688 833 l23 37 -641 0 -641 0 0 -640z"/>
</g>
</svg>
